<svg viewBox="0 0 2006 2006" width="100%" height="100%" xmlns="http://www.w3.org/2000/svg">
<style>
  * {
    fill: none;
    stroke-width: 6;
    stroke-linecap: round;
  }
  .legend text {
    stroke: none;
    fill: black;
    font-family: Open Sans;
    font-size: 51;
    font-weight: 400;
    text-anchor: middle;
  }
  .map {
    stroke: black;
  }
  .grid * {
    stroke: #666;
  }
  .thin * {
    stroke-width: 4;
    stroke-dasharray: 0,8;
  }
  .border {
    fill: white;
  }
  .exit .indicator {
    fill: white;
    stroke: none;
  }
</style>

<g class="map">
<rect class="border" width="1744" height="1744" x="131" y="131" rx="6"/>
<g class="grid">
<g class="thin">
<line x1="378.0" x2="378.0" y1="134" y2="1872"/>
<line x1="134" x2="1872" y1="378.0" y2="378.0"/>
<line x1="628.0" x2="628.0" y1="134" y2="1872"/>
<line x1="134" x2="1872" y1="628.0" y2="628.0"/>
<line x1="878.0" x2="878.0" y1="134" y2="1872"/>
<line x1="134" x2="1872" y1="878.0" y2="878.0"/>
<line x1="1128.0" x2="1128.0" y1="134" y2="1872"/>
<line x1="134" x2="1872" y1="1128.0" y2="1128.0"/>
<line x1="1378.0" x2="1378.0" y1="134" y2="1872"/>
<line x1="134" x2="1872" y1="1378.0" y2="1378.0"/>
<line x1="1628.0" x2="1628.0" y1="134" y2="1872"/>
<line x1="134" x2="1872" y1="1628.0" y2="1628.0"/>
</g>
<rect width="750" height="750" x="628.0" y="628.0"/>
</g>
<g class="exits">
<g class="exit" transform="">
<path class="indicator" d="M 486 134
v -6
H 461
l 42 -42
l 42 42
H 520
v 6
Z
"/>
<g class="road">
<path style="stroke-dasharray:19,22; stroke-dashoffset:-11" d="            M 503 72
            V 134
"/>
<line x1="486" x2="486" y1="72" y2="134"/>
<line x1="520" x2="520" y1="72" y2="134"/>
</g>
</g>
<g class="exit" transform="">
<path class="indicator" d="M 986 134
v -6
H 961
l 42 -42
l 42 42
H 1020
v 6
Z
"/>
<g class="rail">
<line x1="1003" x2="1003" y1="134" y2="72"/>
<line x1="986" x2="1020" y1="116.5" y2="116.5"/>
<line x1="986" x2="1020" y1="81.5" y2="81.5"/>
</g>
</g>
<g class="exit" transform="">
<path class="indicator" d="M 1486 134
v -6
H 1461
l 42 -42
l 42 42
H 1520
v 6
Z
"/>
<g class="road">
<path style="stroke-dasharray:19,22; stroke-dashoffset:-11" d="            M 1503 72
            V 134
"/>
<line x1="1486" x2="1486" y1="72" y2="134"/>
<line x1="1520" x2="1520" y1="72" y2="134"/>
</g>
</g>
<g class="exit" transform="rotate(-90 134 503)">
<path class="indicator" d="M 117 503
v -6
H 92
l 42 -42
l 42 42
H 151
v 6
Z
"/>
<g class="rail">
<line x1="134" x2="134" y1="503" y2="441"/>
<line x1="117" x2="151" y1="485.5" y2="485.5"/>
<line x1="117" x2="151" y1="450.5" y2="450.5"/>
</g>
</g>
<g class="exit" transform="rotate(-90 134 1003)">
<path class="indicator" d="M 117 1003
v -6
H 92
l 42 -42
l 42 42
H 151
v 6
Z
"/>
<g class="road">
<path style="stroke-dasharray:19,22; stroke-dashoffset:-11" d="            M 134 941
            V 1003
"/>
<line x1="117" x2="117" y1="941" y2="1003"/>
<line x1="151" x2="151" y1="941" y2="1003"/>
</g>
</g>
<g class="exit" transform="rotate(-90 134 1503)">
<path class="indicator" d="M 117 1503
v -6
H 92
l 42 -42
l 42 42
H 151
v 6
Z
"/>
<g class="rail">
<line x1="134" x2="134" y1="1503" y2="1441"/>
<line x1="117" x2="151" y1="1485.5" y2="1485.5"/>
<line x1="117" x2="151" y1="1450.5" y2="1450.5"/>
</g>
</g>
<g class="exit" transform="rotate(180 503 1872)">
<path class="indicator" d="M 486 1872
v -6
H 461
l 42 -42
l 42 42
H 520
v 6
Z
"/>
<g class="road">
<path style="stroke-dasharray:19,22; stroke-dashoffset:-11" d="            M 503 1810
            V 1872
"/>
<line x1="486" x2="486" y1="1810" y2="1872"/>
<line x1="520" x2="520" y1="1810" y2="1872"/>
</g>
</g>
<g class="exit" transform="rotate(180 1003 1872)">
<path class="indicator" d="M 986 1872
v -6
H 961
l 42 -42
l 42 42
H 1020
v 6
Z
"/>
<g class="rail">
<line x1="1003" x2="1003" y1="1872" y2="1810"/>
<line x1="986" x2="1020" y1="1854.5" y2="1854.5"/>
<line x1="986" x2="1020" y1="1819.5" y2="1819.5"/>
</g>
</g>
<g class="exit" transform="rotate(180 1503 1872)">
<path class="indicator" d="M 1486 1872
v -6
H 1461
l 42 -42
l 42 42
H 1520
v 6
Z
"/>
<g class="road">
<path style="stroke-dasharray:19,22; stroke-dashoffset:-11" d="            M 1503 1810
            V 1872
"/>
<line x1="1486" x2="1486" y1="1810" y2="1872"/>
<line x1="1520" x2="1520" y1="1810" y2="1872"/>
</g>
</g>
<g class="exit" transform="rotate(90 1872 503)">
<path class="indicator" d="M 1855 503
v -6
H 1830
l 42 -42
l 42 42
H 1889
v 6
Z
"/>
<g class="rail">
<line x1="1872" x2="1872" y1="503" y2="441"/>
<line x1="1855" x2="1889" y1="485.5" y2="485.5"/>
<line x1="1855" x2="1889" y1="450.5" y2="450.5"/>
</g>
</g>
<g class="exit" transform="rotate(90 1872 1003)">
<path class="indicator" d="M 1855 1003
v -6
H 1830
l 42 -42
l 42 42
H 1889
v 6
Z
"/>
<g class="road">
<path style="stroke-dasharray:19,22; stroke-dashoffset:-11" d="            M 1872 941
            V 1003
"/>
<line x1="1855" x2="1855" y1="941" y2="1003"/>
<line x1="1889" x2="1889" y1="941" y2="1003"/>
</g>
</g>
<g class="exit" transform="rotate(90 1872 1503)">
<path class="indicator" d="M 1855 1503
v -6
H 1830
l 42 -42
l 42 42
H 1889
v 6
Z
"/>
<g class="rail">
<line x1="1872" x2="1872" y1="1503" y2="1441"/>
<line x1="1855" x2="1889" y1="1485.5" y2="1485.5"/>
<line x1="1855" x2="1889" y1="1450.5" y2="1450.5"/>
</g>
</g>
</g>
<g class="legend">
<text x="253" y="1978.0" dy=".4em">
A
</text>
<text x="253" y="28.0" dy=".4em">
A
</text>
<text x="1978.0" y="1753" dy=".4em">
1
</text>
<text x="28.0" y="1753" dy=".4em">
1
</text>
<text x="503" y="1978.0" dy=".4em">
B
</text>
<text x="503" y="28.0" dy=".4em">
B
</text>
<text x="1978.0" y="1503" dy=".4em">
2
</text>
<text x="28.0" y="1503" dy=".4em">
2
</text>
<text x="753" y="1978.0" dy=".4em">
C
</text>
<text x="753" y="28.0" dy=".4em">
C
</text>
<text x="1978.0" y="1253" dy=".4em">
3
</text>
<text x="28.0" y="1253" dy=".4em">
3
</text>
<text x="1003" y="1978.0" dy=".4em">
D
</text>
<text x="1003" y="28.0" dy=".4em">
D
</text>
<text x="1978.0" y="1003" dy=".4em">
4
</text>
<text x="28.0" y="1003" dy=".4em">
4
</text>
<text x="1253" y="1978.0" dy=".4em">
E
</text>
<text x="1253" y="28.0" dy=".4em">
E
</text>
<text x="1978.0" y="753" dy=".4em">
5
</text>
<text x="28.0" y="753" dy=".4em">
5
</text>
<text x="1503" y="1978.0" dy=".4em">
F
</text>
<text x="1503" y="28.0" dy=".4em">
F
</text>
<text x="1978.0" y="503" dy=".4em">
6
</text>
<text x="28.0" y="503" dy=".4em">
6
</text>
<text x="1753" y="1978.0" dy=".4em">
G
</text>
<text x="1753" y="28.0" dy=".4em">
G
</text>
<text x="1978.0" y="253" dy=".4em">
7
</text>
<text x="28.0" y="253" dy=".4em">
7
</text>
</g>
</g>
</svg>
