<svg viewBox="0 0 256 256" width="100%" height="100%" xmlns="http://www.w3.org/2000/svg">
<style>
  * {
    stroke-width: 6;
  }
  .tile {
    stroke: #666;
  }
  .road, .rail, .bridge {
    stroke-linecap: round;
    stroke: black;
    fill: none;
  }
  .station {
    stroke-linejoin: round;
    stroke: black;
    fill: black;
  }
</style>

<g class="tile">
<rect width="244" height="244" x="6" y="6" rx="18" fill="white"/>
</g>
<g class="road">
<path style="stroke-dasharray:18,21; stroke-dashoffset:-11" d="        M 128 9
        V 247
"/>
<line x1="111" x2="111" y1="9" y2="247"/>
<line x1="145" x2="145" y1="9" y2="247"/>
</g>
<g class="rail">
<line x1="162" x2="247" y1="128" y2="128"/>
<line x1="94" x2="9" y1="128" y2="128"/>
<line x1="233" x2="233" y1="111" y2="145"/>
<line x1="23" x2="23" y1="111" y2="145"/>
<line x1="205" x2="205" y1="111" y2="145"/>
<line x1="51" x2="51" y1="111" y2="145"/>
<line x1="177" x2="177" y1="111" y2="145"/>
<line x1="79" x2="79" y1="111" y2="145"/>
</g>
<g class="bridge">
<path d="        M 170.5 77
        A 119 119 0 0 0 170.5 179
        M 85.5 77
        A 119 119 0 0 1 85.5 179
"/>
</g>
</svg>
